<svg width="64" height="64" viewBox="0 0 64 64" fill="none" xmlns="http://www.w3.org/2000/svg">
<path d="M2 8C2 5.79086 3.79086 4 6 4H26C28.2091 4 30 5.79086 30 8V16C30 18.2091 28.2091 20 26 20H6C3.79086 20 2 18.2091 2 16V8Z" fill="#3BB98F"/>
<path d="M2 28C2 25.7909 3.79086 24 6 24H26C28.2091 24 30 25.7909 30 28V36C30 38.2091 28.2091 40 26 40H6C3.79086 40 2 38.2091 2 36V28Z" fill="#7BDDBC"/>
<path d="M34 48C34 45.7909 35.7909 44 38 44H58C60.2091 44 62 45.7909 62 48V56C62 58.2091 60.2091 60 58 60H38C35.7909 60 34 58.2091 34 56V48Z" fill="#7BDDBC"/>
<path d="M34 8C34 5.79086 35.7909 4 38 4H58C60.2091 4 62 5.79086 62 8V16C62 18.2091 60.2091 20 58 20H38C35.7909 20 34 18.2091 34 16V8Z" fill="#3BB98F"/>
<path d="M34 28C34 25.7909 35.7909 24 38 24H58C60.2091 24 62 25.7909 62 28V36C62 38.2091 60.2091 40 58 40H38C35.7909 40 34 38.2091 34 36V28Z" fill="#7BDDBC"/>
</svg>
